<svg width="79" height="28" viewBox="0 0 79 28" fill="none" xmlns="http://www.w3.org/2000/svg">
<path d="M7.836 1.296C9.972 1.296 11.76 1.5 13.2 1.908C14.664 2.316 15.756 2.988 16.476 3.924C17.22 4.86 17.592 6.108 17.592 7.668C17.592 8.676 17.4 9.576 17.016 10.368C16.656 11.136 16.104 11.784 15.36 12.312C14.64 12.816 13.752 13.164 12.696 13.356V13.536C13.776 13.704 14.748 14.016 15.612 14.472C16.5 14.928 17.196 15.576 17.7 16.416C18.204 17.256 18.456 18.348 18.456 19.692C18.456 21.252 18.096 22.584 17.376 23.688C16.656 24.768 15.624 25.596 14.28 26.172C12.96 26.724 11.376 27 9.528 27H0.492V1.296H7.836ZM8.484 12.24C10.692 12.24 12.204 11.892 13.02 11.196C13.836 10.476 14.244 9.42 14.244 8.028C14.244 6.612 13.74 5.604 12.732 5.004C11.748 4.38 10.164 4.068 7.98 4.068H3.732V12.24H8.484ZM3.732 14.94V24.264H8.916C11.196 24.264 12.78 23.82 13.668 22.932C14.556 22.044 15 20.88 15 19.44C15 18.528 14.796 17.736 14.388 17.064C14.004 16.392 13.344 15.876 12.408 15.516C11.496 15.132 10.248 14.94 8.664 14.94H3.732ZM46.3341 14.112C46.3341 16.104 46.0821 17.916 45.5781 19.548C45.0741 21.156 44.3181 22.548 43.3101 23.724C42.3261 24.9 41.0901 25.8 39.6021 26.424C38.1381 27.048 36.4341 27.36 34.4901 27.36C32.4741 27.36 30.7221 27.048 29.2341 26.424C27.7461 25.776 26.5101 24.876 25.5261 23.724C24.5421 22.548 23.8101 21.144 23.3301 19.512C22.8501 17.88 22.6101 16.068 22.6101 14.076C22.6101 11.436 23.0421 9.132 23.9061 7.164C24.7701 5.196 26.0781 3.66 27.8301 2.556C29.6061 1.452 31.8381 0.899999 34.5261 0.899999C37.0941 0.899999 39.2541 1.452 41.0061 2.556C42.7581 3.636 44.0781 5.172 44.9661 7.164C45.8781 9.132 46.3341 11.448 46.3341 14.112ZM26.0301 14.112C26.0301 16.272 26.3301 18.132 26.9301 19.692C27.5301 21.252 28.4541 22.452 29.7021 23.292C30.9741 24.132 32.5701 24.552 34.4901 24.552C36.4341 24.552 38.0181 24.132 39.2421 23.292C40.4901 22.452 41.4141 21.252 42.0141 19.692C42.6141 18.132 42.9141 16.272 42.9141 14.112C42.9141 10.872 42.2421 8.34 40.8981 6.516C39.5541 4.668 37.4301 3.744 34.5261 3.744C32.5821 3.744 30.9741 4.164 29.7021 5.004C28.4541 5.82 27.5301 7.008 26.9301 8.568C26.3301 10.104 26.0301 11.952 26.0301 14.112ZM52.0311 27V1.296H55.2711V24.12H66.5031V27H52.0311ZM78.146 27H68.858V25.128L71.882 24.444V3.888L68.858 3.168V1.296H78.146V3.168L75.122 3.888V24.444L78.146 25.128V27Z" fill="#00BF63"/>
</svg>
